<svg width="512" height="512" viewBox="-46 -46 92 92" fill="none" xmlns="http://www.w3.org/2000/svg">
  <title>Hive Brand Mark</title>
  <defs>
      <linearGradient id="cool-asset-mark-mono" x1="0" y1="0" x2="0.4" y2="1">
        <stop offset="0" stop-color="#f0c25a"/>
        <stop offset="1" stop-color="#c8881f"/>
      </linearGradient>
      <linearGradient id="warm-asset-mark-mono" x1="0" y1="0" x2="0.4" y2="1">
        <stop offset="0" stop-color="#f0b878"/>
        <stop offset="1" stop-color="#d98a44"/>
      </linearGradient>
    </defs>
  <g><path d="M0.00 -12.60 L 10.91 -6.30 L 10.91 6.30 L 0.00 12.60 L -10.91 6.30 L -10.91 -6.30 Z" fill="#221f1a"/><path d="M24.25 -12.60 L 35.16 -6.30 L 35.16 6.30 L 24.25 12.60 L 13.34 6.30 L 13.34 -6.30 Z" fill="#221f1a"/><path d="M12.12 8.40 L 23.04 14.70 L 23.04 27.30 L 12.12 33.60 L 1.21 27.30 L 1.21 14.70 Z" fill="#221f1a"/><path d="M-12.12 8.40 L -1.21 14.70 L -1.21 27.30 L -12.12 33.60 L -23.04 27.30 L -23.04 14.70 Z" fill="#221f1a"/><path d="M-24.25 -12.60 L -13.34 -6.30 L -13.34 6.30 L -24.25 12.60 L -35.16 6.30 L -35.16 -6.30 Z" fill="#221f1a"/><path d="M-12.12 -33.60 L -1.21 -27.30 L -1.21 -14.70 L -12.12 -8.40 L -23.04 -14.70 L -23.04 -27.30 Z" fill="#221f1a"/><path d="M12.12 -33.60 L 23.04 -27.30 L 23.04 -14.70 L 12.12 -8.40 L 1.21 -14.70 L 1.21 -27.30 Z" fill="#221f1a"/></g>
</svg>
